<svg xmlns="http://www.w3.org/2000/svg" width="140" height="24" viewBox="0 0 140 24" fill="none">
  <path d="M11.0489 2.92705C11.3483 2.00574 12.6517 2.00574 12.9511 2.92705L14.4697 7.60081C14.6035 8.01284 14.9875 8.2918 15.4207 8.2918H20.335C21.3037 8.2918 21.7065 9.53141 20.9228 10.1008L16.947 12.9894C16.5966 13.244 16.4499 13.6954 16.5838 14.1074L18.1024 18.7812C18.4017 19.7025 17.3472 20.4686 16.5635 19.8992L12.5878 17.0106C12.2373 16.756 11.7627 16.756 11.4122 17.0106L7.43648 19.8992C6.65276 20.4686 5.59828 19.7025 5.89763 18.7812L7.41623 14.1074C7.55011 13.6954 7.40345 13.244 7.05296 12.9894L3.07722 10.1008C2.29351 9.53141 2.69628 8.2918 3.66501 8.2918H8.57929C9.01252 8.2918 9.39647 8.01284 9.53035 7.60081L11.0489 2.92705Z" fill="#FFD634"/>
  <path d="M40.0489 2.92705C40.3483 2.00574 41.6517 2.00574 41.9511 2.92705L43.4697 7.60081C43.6035 8.01284 43.9875 8.2918 44.4207 8.2918H49.335C50.3037 8.2918 50.7065 9.53141 49.9228 10.1008L45.947 12.9894C45.5966 13.244 45.4499 13.6954 45.5838 14.1074L47.1024 18.7812C47.4017 19.7025 46.3472 20.4686 45.5635 19.8992L41.5878 17.0106C41.2373 16.756 40.7627 16.756 40.4122 17.0106L36.4365 19.8992C35.6528 20.4686 34.5983 19.7025 34.8976 18.7812L36.4162 14.1074C36.5501 13.6954 36.4034 13.244 36.053 12.9894L32.0772 10.1008C31.2935 9.53141 31.6963 8.2918 32.665 8.2918H37.5793C38.0125 8.2918 38.3965 8.01284 38.5303 7.60081L40.0489 2.92705Z" fill="#FFD634"/>
  <path d="M69.0489 2.92705C69.3483 2.00574 70.6517 2.00574 70.9511 2.92705L72.4697 7.60081C72.6035 8.01284 72.9875 8.2918 73.4207 8.2918H78.335C79.3037 8.2918 79.7065 9.53141 78.9228 10.1008L74.947 12.9894C74.5966 13.244 74.4499 13.6954 74.5838 14.1074L76.1024 18.7812C76.4017 19.7025 75.3472 20.4686 74.5635 19.8992L70.5878 17.0106C70.2373 16.756 69.7627 16.756 69.4122 17.0106L65.4365 19.8992C64.6528 20.4686 63.5983 19.7025 63.8976 18.7812L65.4162 14.1074C65.5501 13.6954 65.4034 13.244 65.053 12.9894L61.0772 10.1008C60.2935 9.53141 60.6963 8.2918 61.665 8.2918H66.5793C67.0125 8.2918 67.3965 8.01284 67.5303 7.60081L69.0489 2.92705Z" fill="#FFD634"/>
  <path d="M98.0489 2.92705C98.3483 2.00574 99.6517 2.00574 99.9511 2.92705L101.47 7.60081C101.604 8.01284 101.987 8.2918 102.421 8.2918H107.335C108.304 8.2918 108.706 9.53141 107.923 10.1008L103.947 12.9894C103.597 13.244 103.45 13.6954 103.584 14.1074L105.102 18.7812C105.402 19.7025 104.347 20.4686 103.564 19.8992L99.5878 17.0106C99.2373 16.756 98.7627 16.756 98.4122 17.0106L94.4365 19.8992C93.6528 20.4686 92.5983 19.7025 92.8976 18.7812L94.4162 14.1074C94.5501 13.6954 94.4034 13.244 94.053 12.9894L90.0772 10.1008C89.2935 9.53141 89.6963 8.2918 90.665 8.2918H95.5793C96.0125 8.2918 96.3965 8.01284 96.5303 7.60081L98.0489 2.92705Z" fill="#FFD634"/>
  <path d="M127.049 2.92705C127.348 2.00574 128.652 2.00574 128.951 2.92705L130.47 7.60081C130.604 8.01284 130.987 8.2918 131.421 8.2918H136.335C137.304 8.2918 137.706 9.53141 136.923 10.1008L132.947 12.9894C132.597 13.244 132.45 13.6954 132.584 14.1074L134.102 18.7812C134.402 19.7025 133.347 20.4686 132.564 19.8992L128.588 17.0106C128.237 16.756 127.763 16.756 127.412 17.0106L123.436 19.8992C122.653 20.4686 121.598 19.7025 121.898 18.7812L123.416 14.1074C123.55 13.6954 123.403 13.244 123.053 12.9894L119.077 10.1008C118.294 9.53141 118.696 8.2918 119.665 8.2918H124.579C125.013 8.2918 125.396 8.01284 125.53 7.60081L127.049 2.92705Z" fill="#FFD634"/>
</svg>