<svg xmlns="http://www.w3.org/2000/svg" width="19" height="19" viewBox="0 0 19 19" fill="none">
  <g clip-path="url(#clip0_7225_6979)">
    <path d="M18.9904 9.80615C18.9904 14.6236 15.0547 18.5289 10.1987 18.5289C8.65775 18.5289 7.21019 18.1347 5.95006 17.4445L1.08301 18.9902L2.66955 14.3088C1.86956 12.995 1.40884 11.4523 1.40884 9.80557C1.40942 4.98815 5.34394 1.08282 10.1999 1.08282C15.0553 1.08399 18.9904 4.98873 18.9904 9.80615ZM10.1982 2.47375C6.12291 2.47375 2.80794 5.76361 2.80794 9.80791C2.80794 11.4125 3.33114 12.8981 4.21579 14.1068L3.29318 16.8297L6.13225 15.9275C7.30011 16.6936 8.69745 17.1397 10.1982 17.1397C14.2734 17.1397 17.5895 13.8505 17.5895 9.80615C17.5907 5.76361 14.274 2.47375 10.1982 2.47375ZM14.6384 11.8155C14.5835 11.7273 14.4398 11.6736 14.2249 11.5661C14.0106 11.4587 12.9496 10.9419 12.7528 10.8718C12.5543 10.8 12.4107 10.7638 12.267 10.9781C12.1251 11.1924 11.7117 11.6736 11.585 11.8172C11.4594 11.9603 11.3339 11.9784 11.1184 11.8727C10.903 11.7641 10.2081 11.5398 9.38474 10.8117C8.74417 10.2441 8.31148 9.54514 8.18652 9.33084C8.0598 9.11712 8.17367 9.0015 8.28053 8.89522C8.37688 8.79887 8.496 8.6453 8.60403 8.51976C8.71205 8.39538 8.74767 8.30721 8.8195 8.16414C8.89015 8.02108 8.85453 7.8967 8.80139 7.78868C8.74767 7.68123 8.31732 6.63016 8.13688 6.20214C7.95761 5.7747 7.77835 5.84536 7.65222 5.84536C7.52667 5.84536 7.38303 5.82784 7.23938 5.82784C7.09573 5.82784 6.86216 5.87981 6.66538 6.09411C6.46859 6.30841 5.91152 6.82519 5.91152 7.87743C5.91152 8.93084 6.6829 9.9463 6.79092 10.0888C6.89953 10.2307 8.28228 12.4607 10.4726 13.3167C12.6641 14.1722 12.6641 13.8867 13.0588 13.8505C13.4547 13.8142 14.3341 13.3337 14.5128 12.835C14.6927 12.334 14.6927 11.9048 14.6384 11.8155Z" fill="#BBBBBB"/>
  </g>
  <defs>
    <clipPath id="clip0_7225_6979">
      <rect width="18.0883" height="18.0883" fill="white" transform="translate(0.902344 0.901947)"/>
    </clipPath>
  </defs>
</svg>