<svg xmlns="http://www.w3.org/2000/svg" width="49" height="28" viewBox="0 0 49 28" fill="none">
  <path d="M14.5549 27.7871C22.2245 27.7871 28.4454 21.56 28.4454 13.8904C28.4454 6.22081 22.2246 0 14.5549 0C6.87901 0 0.658203 6.22081 0.658203 13.8904C0.658203 21.56 6.87901 27.7871 14.5549 27.7871Z" fill="#535353"/>
  <path d="M34.7678 27.7871C42.4374 27.7871 48.6582 21.56 48.6582 13.8904C48.6582 6.22081 42.4375 0 34.7678 0C27.0918 0 20.8774 6.22081 20.8774 13.8904C20.8774 21.56 27.0918 27.7871 34.7678 27.7871Z" fill="#535353"/>
  <path d="M24.6519 23.4217C22.3135 20.9309 20.8774 17.5758 20.8774 13.8904C20.8774 10.243 22.2881 6.91975 24.582 4.4416L24.8743 4.5941C27.0919 7.05955 28.4454 10.3193 28.4454 13.8904C28.4454 17.4805 27.0793 20.7466 24.8489 23.2184L24.6519 23.4217Z" fill="#606060"/>
  <path d="M3.38428 10.4083H4.59794L6.15473 14.2907L7.54631 10.4083H8.82987V15.5806H7.83225V11.7427L6.49786 15.5806H5.7417L4.40731 11.7935V15.5806H3.38428V10.4083Z" fill="#1F1F1F"/>
  <path d="M13.9384 15.5806V11.6219H13.0869V15.5806H13.9384Z" fill="#1F1F1F"/>
  <path d="M19.6318 15.5806V10.4782H18.7358V15.5806H19.6318Z" fill="#1F1F1F"/>
  <path d="M18.2212 11.6219V12.5687H20.2164V11.6219H18.2212Z" fill="#1F1F1F"/>
  <path d="M38.4466 15.5806V11.6219H37.5952V15.5806H38.4466Z" fill="#1F1F1F"/>
  <path d="M46.1356 15.5806V10.6307H45.2842V15.5806H46.1356Z" fill="#1F1F1F"/>
  <path d="M26.8505 11.6219H25.9673V15.5806H26.8631V12.9626C27.0728 12.5368 27.7019 12.4479 27.8036 12.4479V11.5964C27.5939 11.5964 26.8759 11.7553 26.8504 12.1429V11.6219H26.8505Z" fill="#1F1F1F"/>
  <path d="M40.3911 11.6219H39.5015V15.5806H40.4039V12.9626C40.6072 12.5368 41.2426 12.4479 41.3379 12.4479V11.5964C41.1345 11.5964 40.4166 11.7553 40.3911 12.1429V11.6219Z" fill="#1F1F1F"/>
  <path d="M16.6073 12.753H17.4778C17.4778 12.0604 17.033 11.6346 16.3023 11.6346C15.5715 11.6346 14.9933 12.0159 14.9933 12.8674C14.9933 13.7187 15.8892 13.8396 16.0354 13.8777C16.2133 13.9284 16.7026 13.9857 16.7026 14.5258C16.7026 14.7292 16.4611 14.78 16.2514 14.78C16.0481 14.78 15.8384 14.6211 15.8384 14.386H14.8662C14.8662 15.2756 15.5588 15.6315 16.2514 15.6315C16.944 15.6315 17.6049 15.0722 17.6049 14.3986C17.6049 13.7379 16.9568 13.3502 16.4484 13.2739C15.6796 13.1659 15.7558 12.4987 16.2006 12.4987C16.62 12.4988 16.5946 12.6831 16.6073 12.753Z" fill="#1F1F1F"/>
  <path d="M32.5628 14.1635C32.2451 14.5639 31.7558 14.818 31.2093 14.818C30.2562 14.818 29.4873 14.0492 29.4873 13.1087C29.4873 12.1556 30.2562 11.3867 31.2093 11.3867C31.7495 11.3867 32.2387 11.6346 32.5501 12.0285H33.6684C33.2554 11.05 32.2959 10.4082 31.2093 10.4082C29.7161 10.4082 28.5088 11.6155 28.5088 13.1087C28.5088 14.5893 29.7161 15.8029 31.2093 15.8029C32.315 15.8029 33.2681 15.1168 33.6875 14.1635H32.5628Z" fill="#1F1F1F"/>
  <path d="M44.0895 15.6759C45.227 15.6759 46.1547 14.7481 46.1547 13.6171C46.1547 12.4733 45.2269 11.5519 44.0895 11.5519V12.4288C44.744 12.4288 45.2778 12.9626 45.2778 13.6171C45.2778 14.2652 44.744 14.799 44.0895 14.799V15.6759ZM44.0895 15.6759V14.799C43.4351 14.799 42.9013 14.2652 42.9013 13.6171C42.9013 12.9626 43.4351 12.4288 44.0895 12.4288V11.5519C42.9521 11.5519 42.0244 12.4733 42.0244 13.6171C42.0244 14.7481 42.9521 15.6759 44.0895 15.6759Z" fill="#1F1F1F"/>
  <path d="M36.4006 15.6759C37.5443 15.6759 38.4657 14.7481 38.4657 13.6171C38.4657 12.4733 37.5443 11.5519 36.4006 11.5519V12.4288C37.0551 12.4288 37.5888 12.9626 37.5888 13.6171C37.5888 14.2652 37.0551 14.799 36.4006 14.799V15.6759ZM36.4006 11.552C35.2632 11.552 34.3354 12.4734 34.3354 13.6172C34.3354 14.7482 35.2633 15.676 36.4006 15.676V14.799C35.7461 14.799 35.2123 14.2653 35.2123 13.6172C35.2123 12.9627 35.7461 12.4289 36.4006 12.4289V11.552Z" fill="#1F1F1F"/>
  <path d="M22.9552 14.0237H24.9695C24.9759 13.9666 24.9823 13.903 24.9823 13.8458V13.6742C24.9505 12.7529 24.3723 11.6218 22.9553 11.6091V12.5686C23.4382 12.5686 23.9148 12.791 23.9148 13.2294H22.9553V14.0237H22.9552ZM22.9552 15.6886C23.7558 15.6759 24.8806 15.1549 24.8806 14.4877H23.8067C23.8067 14.6466 23.3937 14.7927 22.9552 14.7864V15.6886ZM21.9703 14.0237H22.9552V13.2294H21.9957C21.9957 12.791 22.4723 12.5686 22.9552 12.5686V11.6092C22.9489 11.6092 22.9362 11.6092 22.9298 11.6092C21.6462 11.6092 20.9473 12.6767 20.9409 13.7188V13.7569C20.96 14.7419 21.589 15.6887 22.9171 15.6887C22.9298 15.6887 22.9425 15.6887 22.9552 15.6887V14.7863C22.4723 14.78 21.9703 14.5829 21.9703 14.0237Z" fill="#1F1F1F"/>
  <path d="M11.8991 15.6759C13.0365 15.6759 13.9642 14.7481 13.9642 13.6171C13.9642 12.4733 13.0365 11.5519 11.8991 11.5519V12.4288C12.5536 12.4288 13.0874 12.9626 13.0874 13.6171C13.0874 14.2652 12.5536 14.799 11.8991 14.799V15.6759ZM11.8991 15.6759V14.799C11.2446 14.799 10.7109 14.2652 10.7109 13.6171C10.7109 12.9626 11.2446 12.4288 11.8991 12.4288V11.5519C10.7553 11.5519 9.83398 12.4733 9.83398 13.6171C9.83398 14.7481 10.7553 15.6759 11.8991 15.6759Z" fill="#1F1F1F"/>
</svg>