<svg xmlns="http://www.w3.org/2000/svg" width="44" height="28" viewBox="0 0 44 28" fill="none">
  <path d="M41.6538 0H2.3462C1.05098 0 0 1.06472 0 2.37818V25.6218C0 26.9355 1.05042 28 2.3462 28H41.6538C42.9491 28 44 26.9353 44 25.6218V2.37818C44 1.0645 42.9496 0 41.6538 0V0ZM17.5522 19.9755C17.5084 21.4168 16.2683 22.6786 14.8429 22.7146C13.4 22.7188 11.9568 22.7152 10.5137 22.7164V16.6311C11.5853 16.8301 12.6625 17.0444 13.7588 16.9796C14.8102 16.9242 16.0784 16.7611 16.6805 15.7643C17.1262 15.028 16.9264 14.1496 16.9634 13.3353L16.9497 11.2528L14.5118 11.2667C14.5001 12.4781 14.5359 13.6922 14.4926 14.9019C14.3989 15.7064 13.5493 16.1196 12.8197 16.0453C11.9759 16.0374 11.2248 15.7182 10.5121 15.5054H10.512C10.512 15.5054 10.4961 10.1847 10.5138 7.7345C10.7517 6.30241 12.1983 5.23056 13.6152 5.36139H17.564C17.5595 10.2327 17.56 15.1043 17.5522 19.9749V19.9755ZM25.5211 20.0356C25.4289 21.5562 23.9813 22.8328 22.4809 22.6883H18.4711V16.0279C19.5166 16.8648 20.9289 16.9904 22.2174 16.9736C23.0646 16.9511 23.9058 16.8243 24.7226 16.5958L24.705 15.3884C23.5527 15.9504 22.1246 16.3475 20.9227 15.7079C19.9678 15.1542 19.8556 13.7599 20.3661 12.8626C20.9965 11.9319 22.27 11.9042 23.2614 12.101C23.7479 12.145 24.4014 12.586 24.7226 12.5761V11.4706C23.0597 11.0446 21.2779 10.9067 19.6119 11.3891C19.1978 11.5326 18.7922 11.7357 18.4711 12.0419L18.4711 12.0418C18.4801 10.6721 18.4525 9.301 18.4859 7.93209C18.5847 6.6276 19.6665 5.52967 20.9384 5.37036C22.2173 5.32768 23.5004 5.36362 24.781 5.35175H25.5262C25.5229 10.2464 25.5328 15.1414 25.5211 20.036V20.0356ZM30.8082 22.5929C29.318 22.6055 27.8267 22.5947 26.3359 22.5983V16.7158H30.7763C31.6027 16.7479 32.6089 16.212 32.5889 15.2684C32.604 14.3933 31.7141 13.8944 30.9514 13.8327C31.5618 13.7607 32.1828 13.3266 32.2419 12.6651C32.3829 11.8005 31.5536 11.1835 30.7762 11.1641C29.2969 11.1402 27.8159 11.1606 26.3359 11.1538V8.25444C26.2356 6.74779 27.4925 5.34869 28.9709 5.25825C30.4411 5.23891 31.9122 5.25535 33.3827 5.24989V19.6901C33.4561 21.1528 32.2253 22.4645 30.8082 22.5934V22.5929ZM29.3771 14.3278C29.3772 14.3278 30.1806 14.2806 30.1806 15.0874C30.1806 15.8941 29.3818 15.847 29.3771 15.847H27.7473V14.3278H29.3771ZM27.7473 13.4973V12.0833H29.2711C29.2711 12.0833 29.9851 12.0833 29.9851 12.7893C29.9851 13.4952 29.2711 13.4973 29.2711 13.4973H27.7473Z" fill="#606060"/>
</svg>