<svg xmlns="http://www.w3.org/2000/svg" width="69" height="18" viewBox="0 0 69 18" fill="none">
  <path fill-rule="evenodd" clip-rule="evenodd" d="M6.94638 0.00307161C7.55388 -0.000455199 9.35935 -0.158255 10.1241 2.34646C10.6393 4.03367 11.4599 6.7974 12.5859 10.6376H13.0445C14.2521 6.58899 15.0817 3.82526 15.5332 2.34646C16.3059 -0.184346 18.2377 0.00312121 19.0105 0.00312121L24.9723 0.00312842V18H18.8958V7.39413H18.4884L15.1011 18H10.5294L7.14207 7.38627H6.73461V18H0.658203V0.00312842L6.94638 0.00307161ZM33.6978 0.00312842V10.6169H34.1826L38.3029 1.88926C39.1028 0.152447 40.8074 0.00312842 40.8074 0.00312842H46.6876V18H40.4843V7.38627H39.9995L35.96 16.1139C35.1602 17.8428 33.3747 18 33.3747 18H27.4945V0.00312842H33.6978ZM68.129 8.55536C67.2637 10.9349 64.5463 12.639 61.5378 12.639H55.0324V18H49.1334V8.55536H68.129Z" fill="#606060"/>
  <path fill-rule="evenodd" clip-rule="evenodd" d="M61.8223 0.00312842H48.8241C49.1334 4.00984 52.6891 7.43985 56.3699 7.43985H68.5389C69.2411 4.1098 66.8236 0.00312842 61.8223 0.00312842Z" fill="#606060"/>
</svg>