m<svg xmlns="http://www.w3.org/2000/svg" width="48" height="29" viewBox="0 0 48 29" fill="none">
  <path fill-rule="evenodd" clip-rule="evenodd" d="M23.829 24.8349C26.7067 22.2368 28.5221 18.4657 28.5221 14.2749C28.5221 10.0848 26.707 6.31335 23.829 3.68753C21.3148 1.39663 17.9625 0 14.2752 0C6.39722 0 0 6.39722 0 14.2749C0 22.1527 6.39722 28.5218 14.2752 28.5218C17.9625 28.5218 21.3151 27.1255 23.829 24.8349Z" fill="#606060"/>
  <path fill-rule="evenodd" clip-rule="evenodd" d="M23.8291 24.8349C26.7068 22.2369 28.5223 18.4658 28.5223 14.275C28.5223 10.0848 26.7071 6.31337 23.8291 3.68756V24.8349Z" fill="#606060"/>
  <path fill-rule="evenodd" clip-rule="evenodd" d="M33.411 0C29.7235 0 26.3709 1.39663 23.8289 3.68754C23.3257 4.16279 22.8501 4.66636 22.4043 5.1958H25.2814C25.673 5.6707 26.036 6.20142 26.3709 6.70437H21.3148C21.0141 7.19498 20.7344 7.69819 20.4766 8.21264H27.1813C27.4045 8.71559 27.6284 9.21825 27.7956 9.7212H19.8898C19.7207 10.2248 19.5808 10.7378 19.4707 11.2575H28.2146C28.4177 12.2504 28.5205 13.2612 28.5215 14.2747C28.5215 15.839 28.2699 17.3757 27.7953 18.8003H19.8898C20.0611 19.3122 20.2568 19.8155 20.4763 20.3086H27.181C26.9294 20.8116 26.678 21.3423 26.3706 21.8169H21.3145C21.6456 22.342 22.0095 22.8458 22.404 23.3252H25.2811C24.8334 23.862 24.348 24.3662 23.8286 24.834C26.3706 27.1246 29.7232 28.521 33.4107 28.521C41.2885 28.521 47.6576 22.1518 47.6576 14.2741C47.6579 6.39722 41.2885 0 33.411 0Z" fill="#535353"/>
  <path fill-rule="evenodd" clip-rule="evenodd" d="M42.741 17.3476C42.741 17.0966 42.9649 16.9011 43.2162 16.9011C43.4673 16.9011 43.6634 17.0966 43.6634 17.3476C43.6634 17.5992 43.4673 17.8228 43.2162 17.8228C42.9649 17.8231 42.741 17.5992 42.741 17.3476ZM43.2165 17.7112C43.412 17.7112 43.5517 17.5434 43.5517 17.3479C43.5517 17.1524 43.412 17.0127 43.2165 17.0127C43.021 17.0127 42.8533 17.1524 42.8533 17.3479C42.8533 17.5434 43.021 17.7112 43.2165 17.7112ZM43.1604 17.5431H43.0485V17.1521H43.2162C43.2717 17.1521 43.2998 17.1521 43.3276 17.1805C43.3559 17.2082 43.3834 17.2363 43.3834 17.264C43.3834 17.3198 43.3556 17.376 43.2998 17.376L43.3834 17.5431H43.2715L43.2159 17.4034H43.1601V17.5431H43.1604ZM43.1604 17.3198H43.2717V17.2363H43.1604V17.3198ZM12.4871 17.8231H10.6991L11.7605 12.2637L9.33024 17.8231H7.71004L7.43065 12.2915L6.36922 17.8231H4.74902L6.1176 10.5874H8.91116L9.05115 15.057L11.0066 10.5874H13.8837L12.4871 17.8231ZM32.3214 17.7386C31.8184 17.8789 31.4554 17.9341 31.0361 17.9341C30.1421 17.9341 29.6394 17.4876 29.6394 16.6494C29.6394 16.4817 29.6672 16.3142 29.695 16.1187L29.8069 15.5316L29.8911 15.0851L30.7009 10.5871H32.4608L32.2091 11.9282H33.1309L32.8798 13.3529H31.9575L31.5104 15.8116C31.4826 15.9229 31.4549 16.0071 31.4549 16.0632C31.4549 16.3701 31.6504 16.5097 32.0692 16.5097C32.2647 16.5097 32.4324 16.482 32.5438 16.4542L32.3214 17.7386Z" fill="#1F1F1F"/>
  <path fill-rule="evenodd" clip-rule="evenodd" d="M37.4901 11.9843C37.3504 11.9285 37.3229 11.9285 37.2946 11.9285C37.211 11.9005 37.1549 11.9005 37.1549 11.8727H36.9594C36.3728 11.8727 35.954 12.124 35.4233 12.8225L35.5905 11.9285H33.9703L32.8811 17.8231H34.6687C35.3114 14.2191 35.5627 13.5768 36.4286 13.5768C36.4845 13.5768 36.5683 13.6048 36.6525 13.6048L36.848 13.6607L37.4901 11.9843ZM25.2822 13.8001C25.2822 14.5263 25.7015 15.057 26.6516 15.4206C27.3778 15.7274 27.4892 15.8116 27.4892 16.091C27.4892 16.4542 27.154 16.6217 26.4561 16.6217C25.9248 16.6217 25.4224 16.5381 24.8359 16.37L24.6121 17.7389H24.6962L25.0031 17.8231C25.115 17.8231 25.2822 17.8509 25.4783 17.8509C25.897 17.9067 26.2322 17.9067 26.4836 17.9067C28.3554 17.9067 29.2494 17.2924 29.2494 15.9513C29.2494 15.1415 28.8861 14.666 27.9641 14.303C27.2095 14.0236 27.1259 13.94 27.1259 13.6607C27.1259 13.3532 27.4334 13.1858 28.0199 13.1858C28.3551 13.1858 28.8581 13.2138 29.3046 13.2696L29.5562 11.9288C29.0816 11.8449 28.3829 11.8172 27.9918 11.8172C25.9806 11.8166 25.2822 12.7106 25.2822 13.8001ZM18.2429 17.8231H16.7901L16.8182 17.2082C16.3711 17.6828 15.7565 17.9067 14.9464 17.9067C13.9966 17.9067 13.3262 17.264 13.3262 16.3145C13.3262 14.8898 14.4715 14.0514 16.4552 14.0514C16.6507 14.0514 16.9021 14.0514 17.1815 14.0791C17.2373 13.8836 17.2373 13.7998 17.2373 13.7162C17.2373 13.3252 16.9298 13.1855 16.092 13.1855C15.589 13.1855 15.0305 13.2413 14.6395 13.3252L14.3879 13.409L14.2204 13.4371L14.4718 12.124C15.3657 11.9005 15.9242 11.8166 16.5949 11.8166C18.1313 11.8166 18.9136 12.4031 18.9136 13.5207C18.9136 13.8281 18.8858 14.0517 18.7739 14.6937L18.4109 16.7894L18.3551 17.1524L18.2993 17.4598L18.2715 17.6553L18.2429 17.8231ZM16.9576 15.1967C16.7621 15.1689 16.6782 15.1689 16.5666 15.1689C15.561 15.1689 15.058 15.4764 15.058 16.0629C15.058 16.4259 15.2816 16.6772 15.6726 16.6772C16.3991 16.6775 16.9295 16.0632 16.9576 15.1967ZM24.0813 17.6828C23.4667 17.8506 22.8802 17.9344 22.2656 17.9344C20.2822 17.9344 19.2485 17.0127 19.2485 15.2812C19.2485 13.2693 20.5613 11.7888 22.3492 11.7888C23.8019 11.7888 24.724 12.627 24.724 13.912C24.724 14.3588 24.6682 14.7782 24.5285 15.3647H20.9803V15.5602C20.9803 16.2307 21.4833 16.5939 22.517 16.5939C23.1496 16.5977 23.7765 16.4741 24.3604 16.2307L24.0813 17.6828ZM23.1312 14.1911V13.8836C23.1312 13.4087 22.8238 13.1294 22.2934 13.1294C21.7346 13.1294 21.3436 13.5204 21.1758 14.1908H23.1312V14.1911ZM43.022 15.1412C42.7423 17.0966 41.3734 17.9625 39.5577 17.9625C37.5745 17.9625 36.7641 16.7611 36.7641 15.2525C36.7641 13.1852 38.133 11.7605 40.2562 11.7605C42.0996 11.7605 43.0775 12.9338 43.0775 14.4143C43.0772 14.7779 43.0772 14.8057 43.022 15.1412ZM41.1776 14.3869C41.1776 13.772 40.926 13.2135 40.1998 13.2135C39.3058 13.2135 38.7473 14.275 38.7473 15.225C38.7473 16.0071 39.1383 16.5378 39.7526 16.5378C40.1436 16.5378 40.9818 16.0071 41.1215 15.1131C41.1776 14.8898 41.1776 14.6382 41.1776 14.3869Z" fill="#1F1F1F"/>
</svg>