<svg xmlns="http://www.w3.org/2000/svg" width="19" height="18" viewBox="0 0 19 18" fill="none">
  <g clip-path="url(#clip0_7225_6975)">
    <path d="M9.56739 17.864C9.50999 17.864 9.4526 17.864 9.3948 17.8638C8.03604 17.8671 6.78057 17.8325 5.55961 17.7582C4.44023 17.6901 3.41845 17.3033 2.60457 16.6396C1.81925 15.9993 1.28297 15.1334 1.01066 14.0664C0.773665 13.1375 0.761101 12.2256 0.749066 11.3436C0.740337 10.7108 0.731344 9.96088 0.729492 9.19831C0.731344 8.43257 0.740337 7.6827 0.749066 7.04987C0.761101 6.16801 0.773665 5.25613 1.01066 4.32706C1.28297 3.26005 1.81925 2.39419 2.60457 1.75382C3.41845 1.09018 4.44023 0.703343 5.55975 0.635233C6.7807 0.56104 8.03644 0.52639 9.39811 0.529696C10.7573 0.526786 12.0123 0.56104 13.2333 0.635233C14.3527 0.703343 15.3745 1.09018 16.1883 1.75382C16.9738 2.39419 17.5099 3.26005 17.7822 4.32706C18.0192 5.256 18.0318 6.16801 18.0438 7.04987C18.0526 7.6827 18.0617 8.43257 18.0634 9.19514V9.19831C18.0617 9.96088 18.0526 10.7108 18.0438 11.3436C18.0318 12.2254 18.0194 13.1373 17.7822 14.0664C17.5099 15.1334 16.9738 15.9993 16.1883 16.6396C15.3745 17.3033 14.3527 17.6901 13.2333 17.7582C12.0641 17.8294 10.8629 17.864 9.56739 17.864ZM9.3948 16.5095C10.7315 16.5127 11.9588 16.4789 13.151 16.4065C13.9974 16.355 14.7313 16.0803 15.3325 15.5901C15.8883 15.1368 16.271 14.5116 16.47 13.7315C16.6674 12.9582 16.6787 12.128 16.6897 11.3251C16.6983 10.6965 16.7073 9.95189 16.7092 9.19672C16.7073 8.44143 16.6983 7.69698 16.6897 7.06839C16.6787 6.26548 16.6674 5.4352 16.47 4.66179C16.271 3.88177 15.8883 3.25648 15.3325 2.80325C14.7313 2.31312 13.9974 2.03843 13.151 1.98699C11.9588 1.91438 10.7315 1.88092 9.39797 1.88383C8.06156 1.88065 6.83413 1.91438 5.64187 1.98699C4.79546 2.03843 4.06159 2.31312 3.46037 2.80325C2.90465 3.25648 2.52191 3.88177 2.32287 4.66179C2.12555 5.4352 2.11417 6.26535 2.1032 7.06839C2.0946 7.69751 2.08561 8.44249 2.08376 9.19831C2.08561 9.95083 2.0946 10.6959 2.1032 11.3251C2.11417 12.128 2.12555 12.9582 2.32287 13.7315C2.52191 14.5116 2.90465 15.1368 3.46037 15.5901C4.06159 16.0802 4.79546 16.3549 5.64187 16.4063C6.83413 16.4789 8.06183 16.5128 9.3948 16.5095ZM9.36253 13.4288C7.02907 13.4288 5.13046 11.5303 5.13046 9.19672C5.13046 6.86313 7.02907 4.96465 9.36253 4.96465C11.6961 4.96465 13.5946 6.86313 13.5946 9.19672C13.5946 11.5303 11.6961 13.4288 9.36253 13.4288ZM9.36253 6.31891C7.77577 6.31891 6.48472 7.60996 6.48472 9.19672C6.48472 10.7835 7.77577 12.0745 9.36253 12.0745C10.9494 12.0745 12.2403 10.7835 12.2403 9.19672C12.2403 7.60996 10.9494 6.31891 9.36253 6.31891ZM14.0686 3.61038C13.5077 3.61038 13.0529 4.06507 13.0529 4.62608C13.0529 5.1871 13.5077 5.64178 14.0686 5.64178C14.6296 5.64178 15.0843 5.1871 15.0843 4.62608C15.0843 4.06507 14.6296 3.61038 14.0686 3.61038Z" fill="#FF7A1B"/>
  </g>
  <defs>
    <clipPath id="clip0_7225_6975">
      <rect width="17.3346" height="17.3346" fill="white" transform="translate(0.729492 0.529419)"/>
    </clipPath>
  </defs>
</svg>