<svg xmlns="http://www.w3.org/2000/svg" width="19" height="18" viewBox="0 0 19 18" fill="none">
  <g clip-path="url(#clip0_7225_6971)">
    <path d="M9.3468 15.4372C9.34527 15.4372 9.34359 15.4372 9.34192 15.4372C8.79066 15.4336 3.91729 15.3909 2.53657 15.033C1.57163 14.7844 0.809901 14.0551 0.549813 13.13C0.188533 11.83 0.211532 9.327 0.21404 9.12714C0.211671 8.92821 0.188394 6.40452 0.548698 5.09378C0.549116 5.09258 0.549395 5.09124 0.549813 5.09004C0.806974 4.17555 1.58584 3.42365 2.5342 3.17436C2.53657 3.17369 2.53908 3.17316 2.54145 3.17249C3.90656 2.8286 8.78955 2.78652 9.34192 2.78291H9.35182C9.90447 2.78652 14.7908 2.82914 16.1588 3.18759C17.1213 3.43555 17.8824 4.16393 18.1432 5.08777C18.518 6.39944 18.4833 8.92861 18.4796 9.1421C18.4822 9.35239 18.5041 11.8329 18.1449 13.1395C18.1446 13.1409 18.1442 13.1421 18.1439 13.1433C17.8837 14.0683 17.1221 14.7976 16.1561 15.0465C16.1548 15.0469 16.1534 15.0472 16.1522 15.0476C14.7872 15.3913 9.90405 15.4334 9.35182 15.4372C9.35015 15.4372 9.34847 15.4372 9.3468 15.4372ZM1.92831 5.44461C1.61107 6.60158 1.64104 9.09307 1.64132 9.11819V9.13622C1.63184 9.8272 1.66515 11.8282 1.92845 12.776C2.05612 13.2298 2.43176 13.5894 2.90816 13.7121C3.92691 13.9763 7.89611 14.0594 9.3468 14.0691C10.8013 14.0594 14.7763 13.9785 15.7875 13.725C16.2624 13.6018 16.6368 13.2435 16.7653 12.7891C17.0289 11.8274 17.0619 9.83615 17.0523 9.14958C17.0523 9.14237 17.0523 9.13515 17.0524 9.12794C17.0655 8.42868 17.0397 6.40425 16.7666 5.44888C16.7663 5.44795 16.766 5.44701 16.7659 5.44608C16.6376 4.99024 16.2618 4.63072 15.7854 4.50795C14.7766 4.24355 10.801 4.16072 9.3468 4.15097C7.89332 4.16072 3.92217 4.24142 2.90789 4.49472C2.44054 4.61897 2.0564 4.99131 1.92831 5.44461ZM17.4548 12.9653H17.4552H17.4548ZM7.52772 11.8802V6.33972L12.5232 9.11004L7.52772 11.8802Z" fill="#BBBBBB"/>
  </g>
  <defs>
    <clipPath id="clip0_7225_6971">
      <rect width="18.0883" height="17.3346" fill="white" transform="translate(0.393555 0.529419)"/>
    </clipPath>
  </defs>
</svg>